<?xml version="1.0" encoding="UTF-8" standalone="no"?>
<!-- Created with Inkscape (http://www.inkscape.org/) -->

<svg
   xmlns:dc="http://purl.org/dc/elements/1.1/"
   xmlns:cc="http://creativecommons.org/ns#"
   xmlns:rdf="http://www.w3.org/1999/02/22-rdf-syntax-ns#"
   xmlns:svg="http://www.w3.org/2000/svg"
   xmlns="http://www.w3.org/2000/svg"
   xmlns:sodipodi="http://sodipodi.sourceforge.net/DTD/sodipodi-0.dtd"
   xmlns:inkscape="http://www.inkscape.org/namespaces/inkscape"
   width="100.42022"
   height="111.74867"
   id="svg3816"
   version="1.1"
   inkscape:version="0.48.3.1 r9886"
   sodipodi:docname="New document 5">
  <defs
     id="defs3818" />
  <sodipodi:namedview
     id="base"
     pagecolor="#ffffff"
     bordercolor="#666666"
     borderopacity="1.0"
     inkscape:pageopacity="0.0"
     inkscape:pageshadow="2"
     inkscape:zoom="0.35"
     inkscape:cx="-163.36132"
     inkscape:cy="-9.8399518"
     inkscape:document-units="px"
     inkscape:current-layer="layer1"
     showgrid="false"
     fit-margin-top="0"
     fit-margin-left="0"
     fit-margin-right="0"
     fit-margin-bottom="0"
     inkscape:window-width="472"
     inkscape:window-height="383"
     inkscape:window-x="65"
     inkscape:window-y="24"
     inkscape:window-maximized="0" />
  <metadata
     id="metadata3821">
    <rdf:RDF>
      <cc:Work
         rdf:about="">
        <dc:format>image/svg+xml</dc:format>
        <dc:type
           rdf:resource="http://purl.org/dc/dcmitype/StillImage" />
        <dc:title></dc:title>
      </cc:Work>
    </rdf:RDF>
  </metadata>
  <g
     inkscape:label="Layer 1"
     inkscape:groupmode="layer"
     id="layer1"
     transform="translate(-538.36132,-410.77356)">
    <path
       style="fill:#000000"
       id="o"
       d="m 591.58615,420.98206 c -0.35007,-0.2358 -0.69843,-0.25504 -1.11067,-0.22599 -2.03732,0.16279 -3.94438,0.94698 -5.81964,1.70268 -4.20289,1.67671 -7.95394,4.21375 -11.59951,6.85133 -4.05326,2.9716 -7.81231,6.3341 -11.21091,10.03726 -0.71353,0.77747 -1.3929,1.5856 -2.08935,2.3784 -2.59249,3.12149 -4.93547,6.45625 -6.68435,10.12797 -1.17828,2.47377 -1.27514,2.97659 -2.17656,5.55877 -1.49757,4.89915 -2.40899,9.9793 -2.53538,15.1064 -0.0242,0.98175 0.013,1.96405 0.0195,2.94608 0.12449,3.79563 0.70179,7.5705 1.85449,11.19398 0.7142,2.24511 1.08784,2.9291 2.04108,5.07914 2.15682,4.21185 5.11724,7.97253 8.70496,11.06127 0.77269,0.66522 1.60013,1.26407 2.4002,1.8961 4.23394,3.0219 8.96047,5.32128 13.99301,6.66512 0.95195,0.2542 1.92383,0.42681 2.88574,0.64022 4.95595,0.88997 9.99948,0.64198 14.88466,-0.53966 1.02702,-0.24842 2.03403,-0.5733 3.05104,-0.85995 4.1212,-1.36476 8.06026,-3.26792 11.56007,-5.85336 2.19149,-1.61893 3.12591,-2.60576 5.1265,-4.47837 4.1839,-4.31647 7.8296,-9.19217 10.6343,-14.51923 0.49507,-0.94031 0.92044,-1.91569 1.38066,-2.87353 1.35705,-3.12505 2.19474,-6.4398 1.81943,-9.86361 -0.22859,-2.08526 -0.52783,-2.6923 -1.15626,-4.70548 -1.80385,-4.54466 -4.475,-8.72572 -7.66626,-12.4239 -0.65788,-0.76237 -1.36934,-1.47683 -2.05401,-2.21525 -4.50139,-4.63897 -9.89071,-8.24041 -15.29529,-11.72502 -4.71634,-2.91742 -9.47443,-5.85881 -14.55085,-8.12285 -0.92859,-0.41415 -1.88215,-0.76986 -2.82322,-1.15478 -3.57237,-1.34152 -7.31121,-2.24413 -11.11936,-2.55405 -2.31454,-0.18836 -2.98584,-0.10269 -5.28283,-0.0287 -2.18635,0.0883 -4.30315,0.53563 -6.40587,1.09713 -6.85001,1.75425 -9.33089,-7.93312 -2.48088,-9.68737 l 0,0 c 0.88123,-0.21915 1.7538,-0.47663 2.64368,-0.65744 2.40065,-0.48776 3.50301,-0.51956 5.97392,-0.7487 2.98574,-0.0681 3.77902,-0.16875 6.78448,0.10131 4.69438,0.42183 9.29971,1.55747 13.69944,3.23312 1.12174,0.46579 2.2574,0.89936 3.36521,1.39737 5.44257,2.44671 10.5597,5.58207 15.61899,8.72291 6.11334,3.94928 12.17659,8.06877 17.23269,13.35737 0.83569,0.91453 1.70313,1.80101 2.50705,2.74359 4.01194,4.70385 7.30767,10.03904 9.4478,15.84712 0.88842,3.15396 1.31682,4.06499 1.56,7.34686 0.37037,4.99822 -0.80828,9.8578 -2.82064,14.405 -0.56803,1.16178 -1.0961,2.34397 -1.70408,3.48535 -3.30296,6.20073 -7.5784,11.87061 -12.50221,16.86943 -2.5905,2.39124 -3.54677,3.41658 -6.41177,5.48974 -4.37552,3.16621 -9.28119,5.50046 -14.41142,7.1525 -1.26264,0.34477 -2.51316,0.73749 -3.78793,1.0343 -6.25814,1.45709 -12.71662,1.6706 -19.0377,0.47846 -1.22395,-0.28443 -2.46027,-0.52011 -3.67186,-0.85328 -6.21037,-1.70781 -12.03088,-4.60479 -17.23004,-8.39118 -1.01073,-0.81541 -2.05551,-1.59035 -3.03221,-2.44624 -4.56621,-4.00136 -8.29357,-8.87656 -10.98954,-14.31145 -1.20737,-2.78523 -1.62834,-3.54945 -2.52974,-6.46403 -1.3818,-4.46793 -2.06976,-9.11624 -2.20537,-13.78537 -10e-4,-1.1851 -0.038,-2.37071 -0.003,-3.55529 0.17952,-6.06955 1.28069,-12.08196 3.09285,-17.87102 0.41919,-1.16961 0.79585,-2.35536 1.25759,-3.50884 2.26743,-5.66432 5.60164,-10.79777 9.52623,-15.44954 0.79404,-0.89885 1.56909,-1.81485 2.38213,-2.69656 3.81436,-4.13652 8.03108,-7.8915 12.56903,-11.21699 4.3155,-3.10774 8.77303,-6.06081 13.74361,-8.02966 3.26919,-1.29586 6.63447,-2.48919 10.20534,-2.3926 0.46354,0.0427 0.92979,0.0622 1.39061,0.128 1.64305,0.23471 3.20091,0.85512 4.58946,1.7545 5.88348,3.92232 0.33648,12.24283 -5.54701,8.3205 z"
       inkscape:connector-curvature="0"
       inkscape:label="#path3779" />
  </g>
</svg>
